<svg width="1429" height="117" viewBox="0 0 1429 117" fill="none" xmlns="http://www.w3.org/2000/svg">
<path d="M56.4744 61.1634C56.4744 55.3608 52.5474 53.9966 47.5856 53.9966H18.9418V34.8972H52.7784C58.3223 34.8972 62.3694 33.3056 62.3694 27.3939C62.3694 21.4822 58.3223 19.8906 52.7784 19.8906H11.0879C4.38896 19.8906 0 22.5099 0 30.8045V93.9051C0 99.4712 3.69597 103.227 9.47091 103.227C15.2459 103.227 18.9418 99.4802 18.9418 93.9051V68.3301H47.5856C52.5566 68.3301 56.4744 66.9659 56.4744 61.1634Z" fill="#F2F2F2"/>
<path d="M100.484 25.2384C98.405 19.4358 94.5889 18.4172 90.3201 18.4172H85.811C81.191 18.4172 78.1881 19.8906 76.5711 24.1015L52.0853 87.8751C51.3923 89.6941 50.2373 92.9864 50.2373 95.0419C50.2373 100.044 53.8224 103.227 59.0152 103.227C63.5243 103.227 66.1762 101.754 67.442 98.116L72.4131 84.4736H102.905L107.756 98.116C109.142 101.754 112.145 103.227 116.303 103.227C121.154 103.227 125.192 99.5893 125.192 95.0419C125.192 92.9955 124.037 89.6941 123.344 87.8751L100.484 25.2384ZM76.5711 71.5133L87.7698 38.6625H88.0008L98.7376 71.5133H76.5618H76.5711Z" fill="#F2F2F2"/>
<path d="M176.132 18.4172C171.743 18.4172 168.971 21.0365 167.243 26.6026L149.456 82.309H149.225L132.131 26.6026C130.394 21.0365 127.622 18.4172 122.54 18.4172C117.809 18.4172 112.949 20.4635 112.949 26.7118C112.949 28.1851 113.3 30.0041 114.104 32.1687L137.435 96.7426C139.394 102.09 143.09 103.218 148.985 103.218C154.88 103.218 158.576 102.081 160.535 96.7426L184.558 32.1687C185.371 30.0041 185.713 28.1851 185.713 26.7118C185.713 20.4545 180.862 18.4172 176.122 18.4172H176.132Z" fill="#F2F2F2"/>
<path d="M252.943 18.4172C247.168 18.4172 243.472 22.1643 243.472 27.7395V72.532C243.472 83.6732 237.115 88.6754 226.268 88.6754C215.42 88.6754 209.063 83.6732 209.063 72.532V27.7395C209.063 22.1734 205.367 18.4172 199.592 18.4172C193.817 18.4172 190.121 22.1643 190.121 27.7395V71.0495C190.121 93.5594 204.212 103.682 226.268 103.682C248.323 103.682 262.414 93.5685 262.414 71.0495V27.7395C262.414 22.1734 258.718 18.4172 252.943 18.4172Z" fill="#F2F2F2"/>
<path d="M341.988 58.8897C348.456 55.4791 351.801 50.2495 351.801 42.9735C351.801 31.9505 344.409 20.9184 324.432 20.9184C313.233 20.9184 296.481 26.8301 296.481 40.6998C296.481 45.8112 300.288 47.521 304.224 47.521C313.353 47.521 310.119 34.5607 324.09 34.5607C330.207 34.5607 335.64 37.744 335.64 44.5652C335.64 49.7947 332.637 53.0962 326.862 53.4327C320.283 53.7783 316.809 55.0243 316.809 60.936C316.809 66.1656 323.166 66.7386 326.4 67.0751C334.365 67.8754 336.795 71.8499 336.795 77.3069C336.795 84.3554 332.175 89.585 323.508 89.585C307.569 89.585 313.113 75.597 302.829 75.597C298.098 75.597 294.624 78.8894 294.624 83.5551C294.624 89.9215 301.443 103.218 323.157 103.218C340.251 103.218 354.342 94.5781 354.342 76.6157C354.342 68.0846 350.646 61.2634 341.979 58.8806L341.988 58.8897Z" fill="#F2F2F2"/>
<path d="M389.462 20.9184C370.751 20.9184 358.619 34.2151 358.619 61.0452C358.619 81.1631 365.087 103.227 389.462 103.227C413.837 103.227 420.305 81.1722 420.305 61.0452C420.305 34.2151 408.182 20.9184 389.462 20.9184ZM389.462 89.585C380.573 89.585 375.491 82.4182 375.491 62.0729C375.491 45.0199 379.298 34.5607 389.462 34.5607C399.626 34.5607 403.433 45.0199 403.433 62.0729C403.433 82.4273 398.351 89.585 389.462 89.585Z" fill="#F2F2F2"/>
<path d="M448.478 102.545C453.709 102.545 457.949 98.3715 457.949 93.2229C457.949 88.0743 453.709 83.9006 448.478 83.9006C443.248 83.9006 439.007 88.0743 439.007 93.2229C439.007 98.3715 443.248 102.545 448.478 102.545Z" fill="#F2F2F2"/>
<path d="M449.06 18.4172C434.97 18.4172 422.034 28.3125 422.034 39.4447C422.034 43.9921 425.499 46.375 429.536 46.375C440.735 46.375 434.97 31.3684 449.753 31.3684C456.683 31.3684 460.841 35.0064 460.841 41.1454C460.841 52.2867 440.624 55.3517 440.624 68.8849C440.624 72.5229 443.045 76.5065 448.016 76.5065C455.639 76.5065 454.715 70.9404 457.487 66.9568C461.183 61.609 478.388 55.9338 478.388 41.1454C478.388 25.1202 463.835 18.4081 449.051 18.4081L449.06 18.4172Z" fill="#F2F2F2"/>
<path d="M721.454 32.5598C738.88 32.5598 735.628 47.43 746.66 47.43C752.352 47.43 755.254 44.2286 755.254 38.9717C755.254 30.9682 743.288 17.4713 721.445 17.4713C694.492 17.4713 680.549 37.371 680.549 60.5812C680.549 88.9392 695.998 103.691 722.138 103.691C740.608 103.691 755.244 91.9132 755.244 80.0171C755.244 75.4423 750.597 72.8139 745.949 72.8139C736.774 72.8139 737.116 88.5936 722.128 88.5936C705.635 88.5936 699.592 75.5606 699.592 60.5812C699.592 42.7461 709.47 32.5689 721.435 32.5689L721.454 32.5598Z" fill="#F2F2F2"/>
<path d="M832 20.882C826.225 20.2817 822.122 23.6559 821.531 29.2311L819.055 52.4322L784.627 48.867L787.103 25.6659C787.694 20.0907 784.405 15.9616 778.621 15.3613C772.846 14.7611 768.743 18.1353 768.152 23.7105L761.083 89.9033C760.492 95.4785 763.781 99.6076 769.566 100.208C775.341 100.808 779.443 97.4339 780.034 91.8587L782.945 64.5649L817.373 68.1301L814.462 95.4239C813.871 100.999 817.16 105.128 822.945 105.728C828.72 106.329 832.822 102.955 833.413 97.3793L840.482 31.1865C841.073 25.6113 837.784 21.4822 832 20.882Z" fill="#F2F2F2"/>
<path d="M906.141 38.1714C911.666 38.9353 915.917 37.9076 916.757 32.0232C917.598 26.1388 913.801 23.9924 908.275 23.2284L863.979 17.0984C857.308 16.1798 852.559 18.1716 851.385 26.4389L842.847 86.2289C841.665 94.4962 845.666 97.7067 852.337 98.6253L897.548 104.883C903.073 105.647 907.324 104.619 908.164 98.7253C909.005 92.8318 905.208 90.6945 899.682 89.9305L862.288 84.7555L865.106 65.0468L897.086 69.4761C902.029 70.1582 906.141 69.3396 906.963 63.5644C907.785 57.7891 904.071 55.8883 899.128 55.2061L867.148 50.7769L869.671 33.1146L906.141 38.1623V38.1714Z" fill="#F2F2F2"/>
<path d="M990.095 28.8036L947.554 15.1976C941.142 13.1512 936.125 14.3063 933.5 22.2461L914.549 79.6715C911.925 87.6113 915.298 91.4585 921.71 93.5048L965.138 107.393C970.442 109.084 974.812 108.802 976.679 103.145C978.545 97.4884 975.182 94.7327 969.878 93.0319L933.972 81.545L940.218 62.6185L970.931 72.441C975.681 73.9599 979.866 73.8598 981.705 68.3119C983.535 62.764 980.208 60.2629 975.459 58.735L944.745 48.9124L950.345 31.9413L985.373 43.1463C990.677 44.8379 995.047 44.556 996.914 38.8989C998.78 33.2419 995.417 30.4861 990.113 28.7854L990.095 28.8036Z" fill="#F2F2F2"/>
<path d="M1057.69 86.6564H1019.94V66.7568H1052.23C1057.23 66.7568 1061.18 65.3834 1061.18 59.5536C1061.18 53.7237 1057.23 52.3504 1052.23 52.3504H1019.94V34.5153H1056.77C1062.35 34.5153 1066.42 32.9146 1066.42 26.9665C1066.42 21.0184 1062.35 19.4177 1056.77 19.4177H1012.04C1005.3 19.4177 1000.89 22.0461 1000.89 30.3953V90.7673C1000.89 99.1165 1005.3 101.745 1012.04 101.745H1057.69C1063.27 101.745 1067.34 100.144 1067.34 94.1961C1067.34 88.248 1063.27 86.6473 1057.69 86.6473V86.6564Z" fill="#F2F2F2"/>
<path d="M1145.14 65.1287L1114.59 86.9747L1102.71 70.8767L1128.84 52.1957C1132.88 49.3035 1135.26 45.9111 1131.78 41.1909C1128.3 36.4706 1124.29 37.6438 1120.24 40.536L1094.11 59.217L1083.46 44.7834L1113.24 23.474C1117.75 20.2453 1120.09 16.5982 1116.53 11.787C1112.99 6.97577 1108.74 8.03078 1104.23 11.2595L1068.04 37.1345C1062.59 41.0362 1060.59 45.711 1065.58 52.4686L1101.63 101.317C1106.61 108.075 1111.76 107.647 1117.21 103.746L1154.14 77.3341C1158.65 74.1054 1160.99 70.4583 1157.43 65.6471C1153.87 60.8359 1149.63 61.8909 1145.12 65.1196L1145.14 65.1287Z" fill="#F2F2F2"/>
<path d="M1226.98 82.7274L1189.58 87.9025L1186.77 68.1938L1218.75 63.7645C1223.69 63.0824 1227.41 61.1816 1226.58 55.4063C1225.76 49.631 1221.65 48.8125 1216.7 49.4946L1184.72 53.9238L1182.2 36.2615L1218.67 31.2138C1224.2 30.4499 1227.99 28.3035 1227.15 22.419C1226.31 16.5346 1222.06 15.5069 1216.54 16.2709L1172.24 22.4008C1165.57 23.3194 1161.57 26.5299 1162.75 34.7972L1171.29 94.5872C1172.47 102.855 1177.21 104.855 1183.88 103.928L1229.09 97.6704C1234.62 96.9064 1238.42 94.76 1237.58 88.8756C1236.74 82.9912 1232.49 81.9544 1226.96 82.7184L1226.98 82.7274Z" fill="#F2F2F2"/>
<path d="M1316.35 42.2822C1316.35 31.6503 1310.3 19.4085 1287.65 19.4085H1255.94C1249.2 19.4085 1244.78 22.0369 1244.78 30.3861V93.8595C1244.78 99.462 1248.5 103.236 1254.31 103.236C1260.12 103.236 1263.84 99.462 1263.84 93.8595V69.7307H1282.66C1293.12 69.7307 1295.79 75.5605 1295.79 89.9669C1295.79 93.2865 1296.6 103.227 1307.06 103.227C1311.48 103.227 1316 100.253 1316 95.9059C1316 92.0133 1313.45 88.4753 1313.45 78.9802C1313.45 70.6311 1311.7 63.6553 1301.94 62.282V62.0546C1311.01 59.9991 1316.35 51.1953 1316.35 42.2731V42.2822ZM1282.89 56.0065H1263.84V33.824H1283.47C1291.83 33.824 1297.29 36.1068 1297.29 44.9198C1297.29 54.1784 1290.09 56.0156 1282.89 56.0156V56.0065Z" fill="#F2F2F2"/>
<path d="M1386.41 23.3921C1373.18 14.279 1355.1 10.1863 1344.44 25.1748C1339.32 32.387 1336.42 41.8366 1348.07 55.1698L1362.55 71.7044C1366.94 76.6884 1366.14 80.6083 1364.21 83.3186C1361.01 87.8115 1353.41 89.1393 1345.31 83.5641C1329.51 72.6775 1340.37 62.0092 1331.9 56.1702C1328.09 53.5509 1323.46 54.2694 1320.8 58.0165C1315.61 65.3197 1317.52 81.1631 1337.32 94.8055C1356.16 107.793 1371.95 105.128 1380.62 92.9501C1386.22 85.083 1388.53 74.2509 1376.52 61.227L1365.54 49.34C1361.39 44.8016 1356.74 39.3719 1360.08 34.688C1363.41 30.0042 1369.74 29.4767 1376.97 34.4607C1391.53 44.4924 1383.07 53.5964 1390.3 58.5895C1394.11 61.2088 1399.04 61.2634 1401.77 57.4162C1408.16 48.4214 1398.59 31.7777 1386.41 23.3831V23.3921Z" fill="#F2F2F2"/>
<path d="M1419.47 83.7915C1414.24 83.7915 1409.95 88.0206 1409.95 93.1684C1409.95 98.3161 1414.24 102.545 1419.47 102.545C1424.7 102.545 1429 98.3161 1429 93.1684C1429 88.0206 1424.7 83.7915 1419.47 83.7915Z" fill="#F2F2F2"/>
<path d="M1414.36 72.1318C1414.83 75.4515 1416.45 76.361 1419.47 76.361C1422.5 76.361 1424.12 75.4424 1424.58 72.1318L1428.19 45.3746C1428.42 43.5465 1428.65 41.7184 1428.65 39.9995V26.7391C1428.65 20.9092 1425.28 17.9352 1419.47 17.9352C1413.67 17.9352 1410.3 20.9092 1410.3 26.7391V39.9995C1410.3 41.7184 1410.53 43.5465 1410.76 45.3746L1414.36 72.1318Z" fill="#F2F2F2"/>
<path d="M639.759 54.133C638.539 53.2053 637.541 52.0957 637.449 50.4768C637.375 49.0307 637.652 47.621 638.142 46.2477C639.01 43.8375 640.064 41.5092 641.422 39.3264C641.505 39.19 641.671 39.0627 641.514 38.8444C641.357 38.8717 641.182 38.8899 641.015 38.9263C638.631 39.3992 636.248 39.472 633.901 38.808C630.436 37.8258 628.939 35.5793 629.89 32.096C630.759 28.9128 632.496 26.1752 634.372 23.5013C634.843 22.8373 635.407 22.2371 635.776 21.5004C635.102 21.6823 634.529 22.0916 633.891 22.3735C630.648 23.8105 627.34 24.8473 623.709 24.3289C620.928 23.9287 618.987 22.4735 617.869 19.9361C616.742 17.3622 616.594 14.661 616.853 11.9143C616.955 10.8139 617.084 9.70428 617.186 8.67655C616.197 9.44053 615.181 10.2045 614.173 10.9867C612.27 12.4509 610.246 13.6969 607.946 14.4609C606.661 14.8884 605.349 15.0703 604.019 14.7792C602.55 14.4609 601.598 13.4514 600.877 12.2418C599.639 10.1772 599.075 7.8853 598.678 5.5479C598.373 3.71982 598.216 1.87355 598.04 0C597.782 0.145519 597.763 0.381987 597.671 0.563885C596.211 3.56521 594.492 6.37554 591.979 8.66746C589.558 10.8775 586.796 12.0417 583.451 11.4141C581.667 11.0776 580.198 10.1863 579.154 8.71293C578.027 7.13042 577.491 5.32962 577.14 3.45607C576.973 2.54658 576.807 1.63709 576.632 0.727594C576.465 1.50066 576.216 2.21007 576.013 2.92856C575.199 5.71161 574.128 8.36733 572.196 10.6138C569.341 13.9334 565.701 14.5337 561.875 12.9603C558.993 11.7779 556.849 9.677 555.093 7.18499C554.511 6.36644 553.957 5.52971 553.301 4.57475C553.449 6.53015 553.504 8.33095 553.439 10.1499C553.356 12.5055 553.042 14.8156 552.22 17.0166C551.24 19.6541 549.439 21.4367 546.445 21.655C543.811 21.846 541.28 21.3549 538.914 20.1725C537.805 19.6268 536.743 18.9993 535.662 18.4081L535.634 18.4354C535.643 18.5627 535.634 18.6992 535.68 18.8174C536.734 21.8096 537.408 24.8746 537.491 28.0578C537.565 31.141 536.262 33.3238 532.862 33.8695C530.183 34.2969 527.568 33.8422 524.962 33.342C524.565 33.2692 524.177 33.1874 523.733 33.2056C524.371 34.0059 524.971 34.7335 525.544 35.4793C526.727 37.0072 527.789 38.5988 528.436 40.4269C528.87 41.6638 529.046 42.9462 528.741 44.2286C528.362 45.8293 527.161 46.7388 525.71 47.3663C523.53 48.3122 521.192 48.6124 518.854 48.9034C518.235 48.9852 517.589 48.958 516.914 49.1944C517.127 49.349 517.274 49.44 517.413 49.54C519.963 51.3681 522.329 53.3963 524.047 56.052C525.895 58.8987 525.636 61.5635 523.724 64.2101C522.282 66.211 520.361 67.6844 518.272 68.9486C515.029 70.9222 511.536 72.3774 507.924 73.5597C507.794 73.5961 507.6 73.587 507.619 73.8326C509.892 74.1054 512.174 74.1236 514.447 74.4783C516.923 74.8603 519.409 75.124 521.857 75.6606C523.918 76.1154 525.951 76.6611 527.854 77.5979C530.635 78.9712 532.151 81.1176 531.957 84.2372C531.818 86.4927 531.31 88.6846 530.691 90.8583C530.367 91.9951 529.813 93.0501 529.61 94.2143C530.7 93.6868 531.744 93.041 532.881 92.5954C535.523 91.5586 538.203 90.8128 541.095 91.213C542.278 91.3767 543.155 91.986 543.756 92.9865C545.077 95.2147 544.865 97.6613 544.634 100.071C544.504 101.445 544.283 102.836 543.876 104.173C543.728 104.673 543.608 105.174 543.451 105.783C544.948 105.001 546.315 104.255 547.711 103.564C549.919 102.463 552.192 101.536 554.65 101.136C555.943 100.926 557.246 100.744 558.531 101.108C560.425 101.645 561.404 103.136 562.162 104.755C563.446 107.502 563.917 110.449 564.121 113.441C564.195 114.541 564.222 115.633 564.278 116.852C564.555 116.497 564.768 116.233 564.98 115.96C567.05 113.332 569.129 110.694 571.993 108.821C574.858 106.938 577.426 106.774 580.281 109.03C581.945 110.34 583.155 112.013 584.264 113.768C584.855 114.696 585.409 115.651 586.019 116.661C586.121 116.37 586.204 116.197 586.25 116.015C586.768 114.087 587.535 112.277 588.745 110.676C589.651 109.485 590.704 108.484 592.21 108.057C594.003 107.547 595.62 108.039 597.153 108.903C599.621 110.285 601.358 112.413 603.012 114.614C603.159 114.814 603.252 115.06 603.547 115.16C603.64 114.887 603.723 114.651 603.797 114.414C603.825 114.314 603.834 114.205 603.862 114.096C604.49 111.595 605.442 109.23 607.207 107.275C609.101 105.174 611.457 104.146 614.367 104.455C615.929 104.619 617.38 105.119 618.784 105.765C619.921 106.283 621.02 106.874 622.249 107.484C621.944 106.01 621.806 104.61 621.796 103.2C621.787 101.427 622.101 99.744 622.988 98.1888C625.178 94.3507 629.955 93.4776 633.596 94.0415C634.741 94.2143 635.823 94.6054 636.95 94.8418L636.977 94.8145C636.719 94.4417 636.469 94.0688 636.211 93.6959C634.372 91.0038 634.039 88.1753 635.508 85.2376C636.783 82.691 639.047 81.3632 641.671 80.5082C642.734 80.1626 643.833 79.9807 645.062 79.8261C643.76 78.6074 642.697 77.3614 641.856 75.9517C640.72 74.0417 640.064 71.9863 640.248 69.758C640.396 67.939 641.172 66.3383 642.327 64.9195C644.028 62.8186 646.217 61.318 648.546 59.9719C649.211 59.5899 649.941 59.2898 650.634 58.7623C649.461 58.3985 648.38 58.0802 647.317 57.7255C644.656 56.8342 642.004 55.8883 639.74 54.1693L639.759 54.133ZM581.889 44.2832C581.935 43.9557 582.046 43.6283 582.425 43.5556C582.841 43.4737 583.201 43.6192 583.441 43.983C583.691 44.3468 583.802 44.7652 583.903 45.1836C585.52 51.8683 588.893 57.6527 593.236 62.955C593.605 63.4098 593.984 63.8463 594.252 64.3647C594.76 65.347 594.548 65.7745 593.531 65.9564C592.672 66.1292 591.97 65.9564 591.305 65.5744C589.383 64.4648 588.089 62.7731 586.943 60.9632C585.095 58.0529 583.839 54.8878 582.961 51.5773C582.416 49.5218 581.945 47.4482 581.834 45.3109C581.815 44.9744 581.852 44.6288 581.898 44.2923L581.889 44.2832ZM546.971 51.932C545.946 53.1143 545.197 54.4877 544.144 55.6427C543.83 55.9792 543.488 56.5704 543.017 56.3521C542.518 56.1157 542.814 55.4972 542.906 55.0606C543.368 52.8779 544.56 51.0589 545.927 49.3399C548.468 46.1294 551.721 43.9194 555.712 42.8098C559.473 41.773 563.141 41.8457 566.532 44.0194C568.482 45.2745 569.979 46.8934 570.506 48.8306C570.894 50.8133 569.443 51.8956 567.678 51.3408C566.652 51.0225 565.941 50.2949 565.303 49.4946C564.601 48.6123 563.844 47.7938 562.873 47.1754C561.062 46.0112 559.057 45.7929 556.969 46.0931C552.82 46.6842 549.642 48.867 546.981 51.932H546.971ZM618.359 65.8199C617.897 68.4393 616.834 70.8312 615.384 73.0504C611.706 78.6892 606.523 82.4818 600.212 84.8465C597.153 85.9925 594.003 86.7383 590.75 87.0202C586.98 87.3476 583.275 86.9111 579.635 85.9015C574.146 84.3827 569.12 81.8634 564.241 79.044C562.864 78.2527 561.524 77.4069 560.175 76.5701C559.889 76.3973 559.649 76.3791 559.325 76.4519C558.429 76.6429 557.523 76.7793 556.452 76.9703C557.255 75.8334 557.976 74.8239 558.697 73.8053C558.937 73.4688 559.122 73.7689 559.298 73.8689C561.432 75.1331 563.566 76.3791 565.775 77.516C570.08 79.7352 574.525 81.5814 579.339 82.4273C583.127 83.0912 586.916 83.0639 590.722 82.6273C596.294 81.9816 601.561 80.4719 606.319 77.4705C610.893 74.5874 614.469 70.8403 616.696 65.9109C616.844 65.5835 618.036 65.1105 618.322 65.2833C618.535 65.4107 618.405 65.6199 618.378 65.8017L618.359 65.8199ZM617.37 47.6392C616.594 47.5392 615.994 47.1208 615.458 46.5933C615.051 46.2022 614.728 45.7474 614.423 45.2745C612.104 41.7093 609.091 40.4451 604.823 41.0999C600.517 41.7639 597.227 44.0467 594.391 47.1299C593.707 47.8757 593.125 48.7215 592.367 49.4036C592.09 49.6492 591.794 49.8674 591.508 50.0857C591.351 50.204 591.166 50.3131 590.972 50.1858C590.778 50.0584 590.796 49.8674 590.824 49.6674C590.935 48.9125 591.147 48.194 591.517 47.5301C594.058 42.9735 597.754 39.7357 602.79 38.0895C605.802 37.1073 608.879 36.7435 611.984 37.6166C615.439 38.5897 618.008 40.6361 619.459 43.9376C619.616 44.2923 619.69 44.6742 619.791 45.0108C619.828 45.3927 619.902 45.7384 619.884 46.0749C619.8 47.1572 618.729 47.8029 617.38 47.6301L617.37 47.6392Z" fill="#F2F2F2"/>
</svg>
